# AST/ASF file generated using VICON BodyLanguage
# -----------------------------------------------
:version 1.10
:name VICON
:units
  mass 1.0
  length 0.45
  angle deg
:documentation
   .ast/.asf automatically generated from VICON data using
   VICON BodyBuilder and BodyLanguage model FoxedUp or BRILLIANT.MOD
:root
   order TX TY TZ RX RY RZ
   axis XYZ
   position 0 0 0  
   orientation 0 0 0 
:bonedata
  begin
     id 1 
     name lhipjoint
     direction 0.710188 -0.616876 0.339259 
     length 2.5669 
     axis 0 0 0  XYZ
  end
  begin
     id 2 
     name lfemur
     direction 0.34202 -0.939693 0  
     length 7.12796  
     axis 0 0 20  XYZ
    dof rx ry rz
    limits (-160.0 20.0)
           (-70.0 70.0)
           (-60.0 70.0)
  end
  begin
     id 3 
     name ltibia
     direction 0.34202 -0.939693 0   
     length 7.58108   
     axis 0 0 20   XYZ
    dof rx
    limits (-10.0 170.0)
  end
  begin
     id 4 
     name lfoot
     direction 0.0669471 -0.183936 0.980656   
     length 2.17365   
     axis -90 7.62852e-016 20   XYZ
    dof rx rz
    limits (-45.0 90.0)
           (-70.0 20.0)
  end
  begin
     id 5 
     name ltoes
     direction 1.53508e-011 -4.21705e-011 1   
     length 1.09427   
     axis -90 7.62852e-016 20   XYZ
    dof rx
    limits (-90.0 20.0)
  end
  begin
     id 6 
     name rhipjoint
     direction -0.700191 -0.625589 0.34405   
     length 2.53115  
     axis 0 0 0  XYZ 
  end
  begin
     id 7 
     name rfemur
     direction -0.34202 -0.939693 0   
     length 7.33006   
     axis 0 0 -20   XYZ
    dof rx ry rz
    limits (-160.0 20.0)
           (-70.0 70.0)
           (-70.0 60.0)
  end
  begin
     id 8 
     name rtibia
     direction -0.34202 -0.939693 0   
     length 7.64926   
     axis 0 0 -20   XYZ
    dof rx
    limits (-10.0 170.0)
 end
 begin
     id 9 
     name rfoot
     direction -0.0688927 -0.189281 0.979503   
     length 2.20493  
     axis -90 -7.62852e-016 -20   XYZ
    dof rx rz
    limits (-45.0 90.0)
           (-20.0 70.0)
  end
  begin
     id 10 
     name rtoes
     direction -1.53567e-011 -4.21933e-011 1   
     length 1.10919   
     axis -90 -7.62852e-016 -20   XYZ
    dof rx
    limits (-90.0 20.0)
  end
  begin
     id 11 
     name lowerback
     direction -0.0167868 0.989873 -0.140959   
     length 2.14596   
     axis 0 0 0   XYZ
    dof rx ry rz
    limits (-20.0 45.0)
           (-30.0 30.0)
           (-30.0 30.0)
  end
  begin
     id 12 
     name upperback
     direction 0.0129109 0.998033 0.0613525   
     length 2.10457   
     axis 0 0 0   XYZ
    dof rx ry rz
    limits (-20.0 45.0)
           (-30.0 30.0)
           (-30.0 30.0)
  end
  begin
     id 13 
     name thorax
     direction 0.0177047 0.991119 0.131797   
     length 2.17652   
     axis 0 0 0   XYZ
    dof rx ry rz
    limits (-20.0 45.0)
           (-30.0 30.0)
           (-30.0 30.0)
  end
  begin
     id 14 
     name lowerneck
     direction -0.0336893 0.997548 0.0613464   
     length 1.8912   
     axis 0 0 0   XYZ
    dof rx ry rz
    limits (-20.0 45.0)
           (-30.0 30.0)
           (-30.0 30.0)
  end
  begin
     id 15 
     name upperneck
     direction 0.0435909 0.997179 -0.0611028   
     length 1.8829   
     axis 0 0 0   XYZ
    dof rx ry rz
    limits (-20.0 45.0)
           (-30.0 30.0)
           (-30.0 30.0)
  end
  begin
     id 16
     name head
     direction 0.0175076 0.999444 -0.0283782  
     length 1.93197  
     axis 0 0 0   XYZ
    dof rx ry rz
    limits (-20.0 45.0)
           (-30.0 30.0)
           (-30.0 30.0)
  end
  begin
     id 17 
     name lclavicle
     direction 0.919164 0.389875 0.0559876  
     length 3.60004  
     axis 0 0 0   XYZ
    dof ry rz
    limits (-20.0 10.0)
           (0.0 20.0)
  end
  begin
     id 18 
     name lhumerus
     direction 1 -4.48958e-011 6.89191e-027   
     length 5.43301   
     axis 180 -30 -90   XYZ
    dof rx ry rz
    limits (-60.0 90.0)
           (-90.0 90.0)
           (-90.0 90.0)
  end
  begin
     id 19
     name lradius
     direction 1 -4.4897e-011 3.24727e-027   
     length 3.15936   
     axis 180 -30 -90   XYZ
    dof rx
    limits (-10.0 170.0)
  end
  begin
     id 20
     name lwrist
     direction 1 -4.4897e-011 9.00228e-027   
     length 1.57968   
     axis -6.29373e-015 90 90   XYZ
    dof ry
    limits (-180.0 0.0)
 end
  begin
     id 21 
     name lhand
     direction 1 -4.48968e-011 1.80042e-026   
     length 0.712827   
     axis -1.14882e-014 90 90   XYZ
    dof rx rz
    limits (-90.0 90.0)
           (-45.0 45.0)
  end
  begin
     id 22 
     name lfingers
     direction 1 -4.49019e-011 3.60267e-026   
     length 0.574699   
     axis -2.29769e-014 90 90   XYZ
    dof rx
    limits (0.0 90.0)
  end
  begin
     id 23
     name lthumb
     direction 0.707107 -6.3498e-011 0.707107   
     length 0.825157   
     axis -90 45 5.37419e-014   XYZ
    dof rx rz
    limits (-45.0 45.0)
           (-45.0 45.0)
  end
  begin
     id 24 
     name rclavicle
     direction -0.890334 0.455305 -0.00132111   
     length 3.51494  
     axis 0 0 0   XYZ 
    dof ry rz
    limits (-10.0 20.0)
           (-20.0 0.0)
  end
  begin
     id 25 
     name rhumerus
     direction -1 -4.48967e-011 5.07175e-028  
     length 5.34194   
     axis 180 30 90   XYZ
    dof rx ry rz
    limits (-90.0 60.0)
           (-90.0 90.0)
           (-90.0 90.0)
  end
  begin
     id 26 
     name rradius
     direction -1 -4.48955e-011 3.30467e-027   
     length 3.19351   
     axis 180 30 90   XYZ
    dof rx
    limits (-10.0 170.0)
  end
  begin
     id 27 
     name rwrist
     direction -1 -4.48968e-011 9.00208e-027   
     length 1.59676   
     axis -6.29373e-015 -90 -90   XYZ
    dof ry
    limits (-180.0 0.0)
  end
  begin
     id 28
     name rhand
     direction -1 -4.49e-011 1.80099e-026   
     length 0.743862   
     axis -1.14882e-014 -90 -90   XYZ
    dof rx rz
    limits (-90.0 90.0)
           (-45.0 45.0)
  end
  begin
     id 29
     name rfingers
     direction -1 -4.49009e-011 3.6023e-026   
     length 0.599721   
     axis -2.29769e-014 -90 -90   XYZ
    dof rx
    limits (0.0 90.0)
  end
  begin
     id 30
     name rthumb
     direction -0.707107 -6.35025e-011 0.707107   
     length 0.861083   
     axis -90 -45 -5.37419e-014   XYZ
    dof rx rz
    limits (-45.0 45.0)
           (-45.0 45.0)
  end
:hierarchy
  begin
    root lhipjoint rhipjoint lowerback
    lhipjoint lfemur
    lfemur ltibia
    ltibia lfoot
    lfoot ltoes
    rhipjoint rfemur
    rfemur rtibia
    rtibia rfoot
    rfoot rtoes
    lowerback upperback
    upperback thorax
    thorax lowerneck lclavicle rclavicle
    lowerneck upperneck
    upperneck head
    lclavicle lhumerus
    lhumerus lradius
    lradius lwrist
    lwrist lhand lthumb
    lhand lfingers
    rclavicle rhumerus
    rhumerus rradius
    rradius rwrist
    rwrist rhand rthumb
    rhand rfingers
  end

#!OML:ASF H:\Martial Arts Walks\Project 1\Capture day 1\Session 1\male.ASF
:FULLY-SPECIFIED
:DEGREES
126
root -1.42912 13.833 -38.6575 2.04977 45.4827 1.26371
lowerback 11.9825 -0.569119 -7.76811
upperback -3.78185 -1.98599 0.389077
thorax -10.6198 -0.411767 5.22647
lowerneck 4.48115 -14.7541 -15.5326
upperneck 6.35165 -21.1774 14.2425
head 4.35345 -10.6665 5.69392
rclavicle -1.92448e-014 -2.78299e-015
rhumerus -4.04821 -15.7522 -68.0705
rradius 88.0698
rwrist 17.9112
rhand -42.9797 -33.678
rfingers 7.12502
rthumb -15.8388 -63.0502
lclavicle -1.92448e-014 -2.78299e-015
lhumerus -52.2574 -43.7055 114.898
lradius 106.934
lwrist 83.0219
lhand 8.08444 38.2855
lfingers 7.12502
lthumb 33.3073 65.2203
rfemur -60.8661 -37.4822 12.345
rtibia 66.9915
rfoot -1.71404 9.12505
rtoes 7.09826
lfemur -25.7719 30.2511 -12.2366
ltibia 80.6935
lfoot -38.3634 21.4686
ltoes -16.5708
127
root -1.42975 13.8329 -38.6575 2.04488 45.483 1.25827
lowerback 11.9871 -0.561666 -7.76897
upperback -3.78174 -1.97675 0.387018
thorax -10.6238 -0.407174 5.22302
lowerneck 4.47179 -14.7528 -15.5316
upperneck 6.36143 -21.1758 14.2475
head 4.35813 -10.6651 5.69436
rclavicle -7.57245e-015 3.18055e-015
rhumerus -4.07025 -15.7695 -68.061
rradius 88.0633
rwrist 17.8957
rhand -42.9668 -33.6729
rfingers 7.12502
rthumb -15.8264 -63.046
lclavicle -7.57245e-015 3.18055e-015
lhumerus -52.2486 -43.7128 114.895
lradius 106.928
lwrist 83.0394
lhand 8.06691 38.2797
lfingers 7.12502
lthumb 33.2906 65.2181
rfemur -60.8665 -37.476 12.3494
rtibia 66.993
rfoot -1.71213 9.11956
rtoes 7.10836
lfemur -25.7746 30.2583 -12.2277
ltibia 80.6987
lfoot -38.3611 21.4652
ltoes -16.5807
128
root -1.4304 13.8328 -38.6573 2.03307 45.4799 1.25
lowerback 11.9951 -0.553675 -7.76976
upperback -3.77964 -1.96685 0.386504
thorax -10.6277 -0.402273 5.22118
lowerneck 4.46104 -14.7507 -15.5324
upperneck 6.37191 -21.1728 14.2495
head 4.36291 -10.6631 5.69415
rclavicle -7.42336e-015 -6.75868e-015
rhumerus -4.08953 -15.784 -68.0544
rradius 88.0564
rwrist 17.8791
rhand -42.9531 -33.6648
rfingers 7.12502
rthumb -15.8132 -63.039
lclavicle -7.42336e-015 -6.75868e-015
lhumerus -52.2401 -43.7153 114.892
lradius 106.927
lwrist 83.0521
lhand 8.05009 38.2823
lfingers 7.12502
lthumb 33.2747 65.2242
rfemur -60.8596 -37.4653 12.3523
rtibia 66.9925
rfoot -1.70957 9.11447
rtoes 7.12305
lfemur -25.7694 30.2707 -12.2118
ltibia 80.7031
lfoot -38.36 21.4574
ltoes -16.589
129
root -1.43107 13.8327 -38.657 2.01172 45.474 1.23518
lowerback 12.0062 -0.545776 -7.76776
upperback -3.77562 -1.95659 0.388301
thorax -10.6312 -0.39737 5.22029
lowerneck 4.44935 -14.7477 -15.5352
upperneck 6.38293 -21.1684 14.2483
head 4.36762 -10.6604 5.69337
rclavicle 3.22404e-015 7.15625e-015
rhumerus -4.10415 -15.7949 -68.0518
rradius 88.0485
rwrist 17.8632
rhand -42.94 -33.6548
rfingers 7.12502
rthumb -15.8006 -63.03
lclavicle 3.22404e-015 7.15625e-015
lhumerus -52.2318 -43.7132 114.887
lradius 106.929
lwrist 83.0566
lhand 8.03716 38.2874
lfingers 7.12502
lthumb 33.2624 65.2319
rfemur -60.8449 -37.4497 12.3563
rtibia 66.9902
rfoot -1.70663 9.10911
rtoes 7.14145
lfemur -25.7568 30.2871 -12.1862
ltibia 80.7078
lfoot -38.3624 21.4432
ltoes -16.5903
130
root -1.4317 13.8327 -38.6567 1.98181 45.4664 1.21384
lowerback 12.0194 -0.538315 -7.76201
upperback -3.7702 -1.94625 0.392098
thorax -10.6345 -0.392657 5.21951
lowerneck 4.43748 -14.7441 -15.5395
upperneck 6.39466 -21.1629 14.2439
head 4.37224 -10.6573 5.6919
rclavicle 5.59703e-015 3.26007e-014
rhumerus -4.11341 -15.803 -68.0536
rradius 88.0396
rwrist 17.8496
rhand -42.9271 -33.6444
rfingers 7.12502
rthumb -15.7881 -63.0206
lclavicle 5.59703e-015 3.26007e-014
lhumerus -52.2251 -43.7079 114.882
lradius 106.933
lwrist 83.0518
lhand 8.03143 38.2895
lfingers 7.12502
lthumb 33.2569 65.2351
rfemur -60.8237 -37.4307 12.3619
rtibia 66.9863
rfoot -1.70351 9.10342
rtoes 7.16197
lfemur -25.7387 30.3047 -12.1522
ltibia 80.7131
lfoot -38.3695 21.4227
ltoes -16.5821
131
root -1.43227 13.8326 -38.6562 1.94599 45.4587 1.18709
lowerback 12.0332 -0.531738 -7.75224
upperback -3.76421 -1.93632 0.397382
thorax -10.6374 -0.388388 5.21817
lowerneck 4.42581 -14.7404 -15.5445
upperneck 6.40773 -21.157 14.2357
head 4.37682 -10.654 5.68944
rclavicle 3.67255e-014 1.78906e-014
rhumerus -4.11719 -15.8085 -68.0599
rradius 88.0299
rwrist 17.8392
rhand -42.9163 -33.6332
rfingers 7.12502
rthumb -15.7778 -63.0101
lclavicle 3.67255e-014 1.78906e-014
lhumerus -52.2203 -43.7005 114.877
lradius 106.94
lwrist 83.0392
lhand 8.03623 38.287
lfingers 7.12502
lthumb 33.2615 65.2317
rfemur -60.799 -37.4104 12.3696
rtibia 66.9819
rfoot -1.70049 9.09737
rtoes 7.18295
lfemur -25.718 30.3202 -12.1129
ltibia 80.7193
lfoot -38.3811 21.3979
ltoes -16.5637
132
root -1.43271 13.8324 -38.6558 1.90998 45.4525 1.16043
lowerback 12.0464 -0.526323 -7.74064
upperback -3.75851 -1.92762 0.402584
thorax -10.6402 -0.384833 5.21593
lowerneck 4.4145 -14.7369 -15.5494
upperneck 6.42297 -21.1514 14.2243
head 4.38167 -10.651 5.68594
rclavicle 3.12713e-014 7.55382e-015
rhumerus -4.11613 -15.8124 -68.07
rradius 88.0201
rwrist 17.8319
rhand -42.9093 -33.62
rfingers 7.12502
rthumb -15.7711 -62.9975
lclavicle 3.12713e-014 7.55382e-015
lhumerus -52.2182 -43.6928 114.874
lradius 106.947
lwrist 83.022
lhand 8.05097 38.2811
lfingers 7.12502
lthumb 33.2755 65.2227
rfemur -60.7737 -37.3925 12.3765
rtibia 66.978
rfoot -1.69813 9.09202
rtoes 7.20027
lfemur -25.6974 30.3301 -12.0752
ltibia 80.7256
lfoot -38.3958 21.3726
ltoes -16.5377
